<?xml version="1.0" encoding="UTF-8" standalone="no"?>
<!-- Created with Inkscape (http://www.inkscape.org/) -->

<svg
   width="49mm"
   height="43mm"
   viewBox="0 0 49 43"
   version="1.1"
   id="svg5"
   sodipodi:docname="bronze.svg"
   inkscape:version="1.1 (c68e22c387, 2021-05-23)"
   xmlns:inkscape="http://www.inkscape.org/namespaces/inkscape"
   xmlns:sodipodi="http://sodipodi.sourceforge.net/DTD/sodipodi-0.dtd"
   xmlns="http://www.w3.org/2000/svg"
   xmlns:svg="http://www.w3.org/2000/svg">
  <sodipodi:namedview
     id="namedview7"
     pagecolor="#ffffff"
     bordercolor="#666666"
     borderopacity="1.0"
     inkscape:pageshadow="2"
     inkscape:pageopacity="0.0"
     inkscape:pagecheckerboard="0"
     inkscape:document-units="mm"
     showgrid="false"
     width="47.894mm"
     inkscape:zoom="0.92699512"
     inkscape:cx="98.706021"
     inkscape:cy="121.35986"
     inkscape:window-width="1366"
     inkscape:window-height="715"
     inkscape:window-x="-8"
     inkscape:window-y="-8"
     inkscape:window-maximized="1"
     inkscape:current-layer="layer1" />
  <defs
     id="defs2" />
  <g
     inkscape:label="Layer 1"
     inkscape:groupmode="layer"
     id="layer1">
    <g
       id="g11350"
       transform="translate(132.69187,-54.655231)">
      <g
         id="g8168"
         transform="translate(-159.13488,-0.72997653)">
        <g
           id="g8050"
           transform="translate(1.4118438,-1.2990152)">
          <path
             style="color:#000000;fill:#008000;stroke-width:0.137973px;-inkscape-stroke:none"
             d="m 33.561037,92.811044 c 6.99521,4.696008 8.362996,7.012285 15.97358,4.458307 -4.458821,-6.26706 -8.85481,-2.175081 -15.97358,-4.458307 z"
             id="path8042" />
          <path
             style="color:#000000;fill:#008000;stroke-width:0.137973px;-inkscape-stroke:none"
             d="m 28.974137,83.277346 c 5.507857,6.375654 6.21585,8.970788 14.230641,8.515903 -2.64677,-7.221616 -7.966836,-4.434879 -14.230641,-8.515903 z"
             id="path8044" />
          <path
             style="color:#000000;fill:#008000;stroke-width:0.137973px;-inkscape-stroke:none"
             d="m 25.583941,72.077949 c 3.72435,7.557424 3.755845,10.247216 11.626798,11.825789 -0.742428,-7.655451 -6.592895,-6.2986 -11.626798,-11.825789 z"
             id="path8046" />
          <path
             style="color:#000000;fill:#008000;stroke-width:0.137973px;-inkscape-stroke:none"
             d="m 27.434529,61.510122 c 1.978006,8.189807 1.419396,10.821142 8.75323,14.085904 0.952939,-7.632106 -5.052662,-7.590075 -8.75323,-14.085904 z"
             id="path8048" />
        </g>
        <g
           id="g8020"
           transform="matrix(-1,0,0,1,100.47418,-1.271595)">
          <path
             style="color:#000000;fill:#008000;stroke-width:0.137973px;-inkscape-stroke:none"
             d="m 33.561037,92.811044 c 6.99521,4.696008 8.362996,7.012285 15.97358,4.458307 -4.458821,-6.26706 -8.85481,-2.175081 -15.97358,-4.458307 z"
             id="path8012" />
          <path
             style="color:#000000;fill:#008000;stroke-width:0.137973px;-inkscape-stroke:none"
             d="m 28.974137,83.277346 c 5.507857,6.375654 6.21585,8.970788 14.230641,8.515903 -2.64677,-7.221616 -7.966836,-4.434879 -14.230641,-8.515903 z"
             id="path8014" />
          <path
             style="color:#000000;fill:#008000;stroke-width:0.137973px;-inkscape-stroke:none"
             d="m 25.583941,72.077949 c 3.72435,7.557424 3.755845,10.247216 11.626798,11.825789 -0.742428,-7.655451 -6.592895,-6.2986 -11.626798,-11.825789 z"
             id="path8016" />
          <path
             style="color:#000000;fill:#008000;stroke-width:0.137973px;-inkscape-stroke:none"
             d="m 27.434529,61.510122 c 1.978006,8.189807 1.419396,10.821142 8.75323,14.085904 0.952939,-7.632106 -5.052662,-7.590075 -8.75323,-14.085904 z"
             id="path8018" />
        </g>
        <path
           style="color:#000000;fill:#008000;stroke-width:0.137973px;-inkscape-stroke:none"
           d="M 64.801142,93.699622 C 58.4795,97.002701 57.11381,98.824989 50.946461,95.970336 55.27944,91.110118 58.599206,94.96095 64.801142,93.699622 Z"
           id="path8032" />
        <path
           style="color:#000000;fill:#008000;stroke-width:0.137973px;-inkscape-stroke:none"
           d="m 69.544732,87.160818 c -5.225784,4.854345 -6.062126,6.972451 -12.764203,5.84666 2.896676,-5.83144 7.115033,-2.99327 12.764203,-5.84666 z"
           id="path8034" />
        <path
           style="color:#000000;fill:#008000;stroke-width:0.137973px;-inkscape-stroke:none"
           d="m 73.435746,76.992759 c -3.834564,6.014117 -4.110426,8.27459 -10.87998,8.873238 1.334438,-6.373044 6.131673,-4.688917 10.87998,-8.873238 z"
           id="path8036" />
        <path
           style="color:#000000;fill:#008000;stroke-width:0.137973px;-inkscape-stroke:none"
           d="M 72.858219,67.928635 C 70.434535,74.636782 70.660651,76.902772 64.18675,78.9701 64.09241,72.459529 69.142083,73.05165 72.858219,67.928635 Z"
           id="path8038" />
        <path
           style="color:#000000;fill:#008000;stroke-width:0.137973px;-inkscape-stroke:none"
           d="m 37.084882,93.672202 c 6.321642,3.303079 7.687332,5.125367 13.854681,2.270714 -4.332979,-4.860218 -7.652745,-1.009386 -13.854681,-2.270714 z"
           id="path8052" />
        <path
           style="color:#000000;fill:#008000;stroke-width:0.137973px;-inkscape-stroke:none"
           d="m 32.341291,87.133398 c 5.225785,4.854345 6.062127,6.972451 12.764204,5.84666 -2.896676,-5.83144 -7.115033,-2.99327 -12.764204,-5.84666 z"
           id="path8054" />
        <path
           style="color:#000000;fill:#008000;stroke-width:0.137973px;-inkscape-stroke:none"
           d="m 28.450278,76.965339 c 3.834564,6.014117 4.110425,8.27459 10.87998,8.873238 -1.334439,-6.373044 -6.131674,-4.688917 -10.87998,-8.873238 z"
           id="path8056" />
        <path
           style="color:#000000;fill:#008000;stroke-width:0.137973px;-inkscape-stroke:none"
           d="m 29.027805,67.901215 c 2.423684,6.708147 2.197567,8.974137 8.671469,11.041465 0.09433,-6.510571 -4.955333,-5.91845 -8.671469,-11.041465 z"
           id="path8058" />
      </g>
      <g
         id="path869">
        <path
           style="color:#000000;fill:#cd7f32;-inkscape-stroke:none"
           d="m -108.19533,56.222101 c -6.59699,3.540051 -9.95238,4.434978 -17.83015,3.284037 -2.81936,17.896891 7.456,31.629699 17.83015,36.290808 10.374164,-4.661109 20.649939,-18.393917 17.830576,-36.290808 -7.877771,1.150941 -11.233576,0.256014 -17.830576,-3.284037 z"
           id="path11218" />
        <path
           style="color:#000000;fill:#000000;-inkscape-stroke:none"
           d="m -108.19531,55.654297 -0.23633,0.126953 c -6.56568,3.523248 -9.70051,4.373113 -17.52149,3.230469 l -0.49023,-0.07227 -0.0762,0.488281 c -2.85454,18.120183 7.5227,32.065187 18.11914,36.826172 l 0.20508,0.0918 0.20508,-0.0918 c 10.596449,-4.760983 20.973676,-18.705981 18.119136,-36.826172 l -0.07617,-0.488281 -0.490234,0.07227 c -7.820978,1.142643 -10.955802,0.292775 -17.521482,-3.230469 z m 0,1.123047 c 6.29751,3.354113 9.948166,4.281313 17.369138,3.269531 2.51152,17.320562 -7.377843,30.571103 -17.369138,35.179687 -9.99128,-4.608582 -19.88067,-17.859118 -17.36914,-35.179687 7.42091,1.011777 11.07171,0.08454 17.36914,-3.269531 z"
           id="path11220" />
      </g>
    </g>
  </g>
</svg>
