<?xml version="1.0" encoding="UTF-8" standalone="no"?>
<!-- Created with Inkscape (http://www.inkscape.org/) -->

<svg
   width="49mm"
   height="43mm"
   viewBox="0 0 49 43"
   version="1.1"
   id="svg5"
   sodipodi:docname="silver.svg"
   inkscape:version="1.1 (c68e22c387, 2021-05-23)"
   xmlns:inkscape="http://www.inkscape.org/namespaces/inkscape"
   xmlns:sodipodi="http://sodipodi.sourceforge.net/DTD/sodipodi-0.dtd"
   xmlns="http://www.w3.org/2000/svg"
   xmlns:svg="http://www.w3.org/2000/svg">
  <sodipodi:namedview
     id="namedview7"
     pagecolor="#ffffff"
     bordercolor="#666666"
     borderopacity="1.0"
     inkscape:pageshadow="2"
     inkscape:pageopacity="0.0"
     inkscape:pagecheckerboard="0"
     inkscape:document-units="mm"
     showgrid="false"
     width="47.894mm"
     inkscape:zoom="1.2419886"
     inkscape:cx="16.505787"
     inkscape:cy="134.0592"
     inkscape:window-width="1366"
     inkscape:window-height="715"
     inkscape:window-x="-8"
     inkscape:window-y="-8"
     inkscape:window-maximized="1"
     inkscape:current-layer="layer1" />
  <defs
     id="defs2" />
  <g
     inkscape:label="Layer 1"
     inkscape:groupmode="layer"
     id="layer1">
    <g
       id="g11398"
       transform="translate(134.83611,-103.70429)">
      <g
         id="g8372"
         transform="translate(-161.27912,48.3193)">
        <g
           id="g8344"
           transform="translate(1.4118438,-1.2990152)">
          <path
             style="color:#000000;fill:#008000;stroke-width:0.137973px;-inkscape-stroke:none"
             d="m 33.561037,92.811044 c 6.99521,4.696008 8.362996,7.012285 15.97358,4.458307 -4.458821,-6.26706 -8.85481,-2.175081 -15.97358,-4.458307 z"
             id="path8336" />
          <path
             style="color:#000000;fill:#008000;stroke-width:0.137973px;-inkscape-stroke:none"
             d="m 28.974137,83.277346 c 5.507857,6.375654 6.21585,8.970788 14.230641,8.515903 -2.64677,-7.221616 -7.966836,-4.434879 -14.230641,-8.515903 z"
             id="path8338" />
          <path
             style="color:#000000;fill:#008000;stroke-width:0.137973px;-inkscape-stroke:none"
             d="m 25.583941,72.077949 c 3.72435,7.557424 3.755845,10.247216 11.626798,11.825789 -0.742428,-7.655451 -6.592895,-6.2986 -11.626798,-11.825789 z"
             id="path8340" />
          <path
             style="color:#000000;fill:#008000;stroke-width:0.137973px;-inkscape-stroke:none"
             d="m 27.434529,61.510122 c 1.978006,8.189807 1.419396,10.821142 8.75323,14.085904 0.952939,-7.632106 -5.052662,-7.590075 -8.75323,-14.085904 z"
             id="path8342" />
        </g>
        <g
           id="g8354"
           transform="matrix(-1,0,0,1,100.47418,-1.271595)">
          <path
             style="color:#000000;fill:#008000;stroke-width:0.137973px;-inkscape-stroke:none"
             d="m 33.561037,92.811044 c 6.99521,4.696008 8.362996,7.012285 15.97358,4.458307 -4.458821,-6.26706 -8.85481,-2.175081 -15.97358,-4.458307 z"
             id="path8346" />
          <path
             style="color:#000000;fill:#008000;stroke-width:0.137973px;-inkscape-stroke:none"
             d="m 28.974137,83.277346 c 5.507857,6.375654 6.21585,8.970788 14.230641,8.515903 -2.64677,-7.221616 -7.966836,-4.434879 -14.230641,-8.515903 z"
             id="path8348" />
          <path
             style="color:#000000;fill:#008000;stroke-width:0.137973px;-inkscape-stroke:none"
             d="m 25.583941,72.077949 c 3.72435,7.557424 3.755845,10.247216 11.626798,11.825789 -0.742428,-7.655451 -6.592895,-6.2986 -11.626798,-11.825789 z"
             id="path8350" />
          <path
             style="color:#000000;fill:#008000;stroke-width:0.137973px;-inkscape-stroke:none"
             d="m 27.434529,61.510122 c 1.978006,8.189807 1.419396,10.821142 8.75323,14.085904 0.952939,-7.632106 -5.052662,-7.590075 -8.75323,-14.085904 z"
             id="path8352" />
        </g>
        <path
           style="color:#000000;fill:#008000;stroke-width:0.137973px;-inkscape-stroke:none"
           d="M 64.801142,93.699622 C 58.4795,97.002701 57.11381,98.824989 50.946461,95.970336 55.27944,91.110118 58.599206,94.96095 64.801142,93.699622 Z"
           id="path8356" />
        <path
           style="color:#000000;fill:#008000;stroke-width:0.137973px;-inkscape-stroke:none"
           d="m 69.544732,87.160818 c -5.225784,4.854345 -6.062126,6.972451 -12.764203,5.84666 2.896676,-5.83144 7.115033,-2.99327 12.764203,-5.84666 z"
           id="path8358" />
        <path
           style="color:#000000;fill:#008000;stroke-width:0.137973px;-inkscape-stroke:none"
           d="m 73.435746,76.992759 c -3.834564,6.014117 -4.110426,8.27459 -10.87998,8.873238 1.334438,-6.373044 6.131673,-4.688917 10.87998,-8.873238 z"
           id="path8360" />
        <path
           style="color:#000000;fill:#008000;stroke-width:0.137973px;-inkscape-stroke:none"
           d="M 72.858219,67.928635 C 70.434535,74.636782 70.660651,76.902772 64.18675,78.9701 64.09241,72.459529 69.142083,73.05165 72.858219,67.928635 Z"
           id="path8362" />
        <path
           style="color:#000000;fill:#008000;stroke-width:0.137973px;-inkscape-stroke:none"
           d="m 37.084882,93.672202 c 6.321642,3.303079 7.687332,5.125367 13.854681,2.270714 -4.332979,-4.860218 -7.652745,-1.009386 -13.854681,-2.270714 z"
           id="path8364" />
        <path
           style="color:#000000;fill:#008000;stroke-width:0.137973px;-inkscape-stroke:none"
           d="m 32.341291,87.133398 c 5.225785,4.854345 6.062127,6.972451 12.764204,5.84666 -2.896676,-5.83144 -7.115033,-2.99327 -12.764204,-5.84666 z"
           id="path8366" />
        <path
           style="color:#000000;fill:#008000;stroke-width:0.137973px;-inkscape-stroke:none"
           d="m 28.450278,76.965339 c 3.834564,6.014117 4.110425,8.27459 10.87998,8.873238 -1.334439,-6.373044 -6.131674,-4.688917 -10.87998,-8.873238 z"
           id="path8368" />
        <path
           style="color:#000000;fill:#008000;stroke-width:0.137973px;-inkscape-stroke:none"
           d="m 29.027805,67.901215 c 2.423684,6.708147 2.197567,8.974137 8.671469,11.041465 0.09433,-6.510571 -4.955333,-5.91845 -8.671469,-11.041465 z"
           id="path8370" />
      </g>
      <g
         id="path8374">
        <path
           style="color:#000000;fill:#c0c0c0;-inkscape-stroke:none"
           d="m -110.33956,105.27138 c -6.59699,3.54005 -9.95238,4.43497 -17.83015,3.28403 -2.81936,17.89689 7.45599,31.6297 17.83015,36.29081 10.374162,-4.66111 20.649942,-18.39392 17.830572,-36.29081 -7.877772,1.15094 -11.233572,0.25602 -17.830572,-3.28403 z"
           id="path11114" />
        <path
           style="color:#000000;fill:#000000;-inkscape-stroke:none"
           d="m -110.33984,104.70313 -0.23633,0.12695 c -6.56568,3.52325 -9.70051,4.37311 -17.52149,3.23047 l -0.48828,-0.0723 -0.0781,0.49024 c -2.85454,18.12018 7.52268,32.06323 18.11914,36.82421 l 0.20508,0.0918 0.20507,-0.0918 c 10.596456,-4.76098 20.973692,-18.70402 18.119145,-36.82421 l -0.07617,-0.49024 -0.490234,0.0723 c -7.820981,1.14264 -10.955811,0.29277 -17.521491,-3.23047 z m 0,1.125 c 6.29802,3.35437 9.94884,4.28173 17.37109,3.26953 2.510469,17.31957 -7.38018,30.56932 -17.37109,35.17773 -9.9909,-4.60841 -19.87962,-17.85814 -17.36914,-35.17773 7.42088,1.01177 11.07174,0.0845 17.36914,-3.26953 z"
           id="path11116" />
      </g>
    </g>
  </g>
</svg>
