<?xml version="1.0" encoding="UTF-8" standalone="no"?>
<!-- Created with Inkscape (http://www.inkscape.org/) -->

<svg
   width="49mm"
   height="43mm"
   viewBox="0 0 49 43"
   version="1.1"
   id="svg5"
   inkscape:version="1.1 (c68e22c387, 2021-05-23)"
   sodipodi:docname="gold.svg"
   xmlns:inkscape="http://www.inkscape.org/namespaces/inkscape"
   xmlns:sodipodi="http://sodipodi.sourceforge.net/DTD/sodipodi-0.dtd"
   xmlns="http://www.w3.org/2000/svg"
   xmlns:svg="http://www.w3.org/2000/svg">
  <sodipodi:namedview
     id="namedview7"
     pagecolor="#ffffff"
     bordercolor="#666666"
     borderopacity="1.0"
     inkscape:pageshadow="2"
     inkscape:pageopacity="0.0"
     inkscape:pagecheckerboard="0"
     inkscape:document-units="mm"
     showgrid="false"
     width="47.894mm"
     inkscape:zoom="1.1834072"
     inkscape:cx="67.178907"
     inkscape:cy="88.304349"
     inkscape:window-width="1366"
     inkscape:window-height="715"
     inkscape:window-x="-8"
     inkscape:window-y="-8"
     inkscape:window-maximized="1"
     inkscape:current-layer="layer1" />
  <defs
     id="defs2" />
  <g
     inkscape:label="Layer 1"
     inkscape:groupmode="layer"
     id="layer1">
    <g
       id="g10924"
       style="stroke:none"
       transform="translate(76.137788,-104.24087)">
      <g
         id="g8538"
         transform="translate(-102.5808,48.855358)"
         style="stroke:none">
        <g
           id="g8510"
           transform="translate(1.4118438,-1.2990152)"
           style="stroke:none">
          <path
             style="fill:#008000;stroke:none;stroke-width:0.137973px;stroke-linecap:butt;stroke-linejoin:miter;stroke-opacity:1"
             d="m 33.561037,92.811044 c 6.99521,4.696008 8.362996,7.012285 15.97358,4.458307 -4.458821,-6.26706 -8.85481,-2.175081 -15.97358,-4.458307 z"
             id="path8502"
             sodipodi:nodetypes="ccc"
             inkscape:transform-center-x="7.2989834"
             inkscape:transform-center-y="-1.469167" />
          <path
             style="fill:#008000;stroke:none;stroke-width:0.137973px;stroke-linecap:butt;stroke-linejoin:miter;stroke-opacity:1"
             d="m 28.974137,83.277346 c 5.507857,6.375654 6.21585,8.970788 14.230641,8.515903 -2.64677,-7.221616 -7.966836,-4.434879 -14.230641,-8.515903 z"
             id="path8504"
             sodipodi:nodetypes="ccc"
             inkscape:transform-center-x="6.5133069"
             inkscape:transform-center-y="-3.8267085" />
          <path
             style="fill:#008000;stroke:none;stroke-width:0.137973px;stroke-linecap:butt;stroke-linejoin:miter;stroke-opacity:1"
             d="m 25.583941,72.077949 c 3.72435,7.557424 3.755845,10.247216 11.626798,11.825789 -0.742428,-7.655451 -6.592895,-6.2986 -11.626798,-11.825789 z"
             id="path8506"
             sodipodi:nodetypes="ccc"
             inkscape:transform-center-x="5.3330484"
             inkscape:transform-center-y="-5.3683949" />
          <path
             style="fill:#008000;stroke:none;stroke-width:0.137973px;stroke-linecap:butt;stroke-linejoin:miter;stroke-opacity:1"
             d="m 27.434529,61.510122 c 1.978006,8.189807 1.419396,10.821142 8.75323,14.085904 0.952939,-7.632106 -5.052662,-7.590075 -8.75323,-14.085904 z"
             id="path8508"
             sodipodi:nodetypes="ccc"
             inkscape:transform-center-x="3.9767007"
             inkscape:transform-center-y="-6.4064364" />
        </g>
        <g
           id="g8520"
           transform="matrix(-1,0,0,1,100.47418,-1.271595)"
           style="stroke:none">
          <path
             style="fill:#008000;stroke:none;stroke-width:0.137973px;stroke-linecap:butt;stroke-linejoin:miter;stroke-opacity:1"
             d="m 33.561037,92.811044 c 6.99521,4.696008 8.362996,7.012285 15.97358,4.458307 -4.458821,-6.26706 -8.85481,-2.175081 -15.97358,-4.458307 z"
             id="path8512"
             sodipodi:nodetypes="ccc"
             inkscape:transform-center-x="7.2989834"
             inkscape:transform-center-y="-1.469167" />
          <path
             style="fill:#008000;stroke:none;stroke-width:0.137973px;stroke-linecap:butt;stroke-linejoin:miter;stroke-opacity:1"
             d="m 28.974137,83.277346 c 5.507857,6.375654 6.21585,8.970788 14.230641,8.515903 -2.64677,-7.221616 -7.966836,-4.434879 -14.230641,-8.515903 z"
             id="path8514"
             sodipodi:nodetypes="ccc"
             inkscape:transform-center-x="6.5133069"
             inkscape:transform-center-y="-3.8267085" />
          <path
             style="fill:#008000;stroke:none;stroke-width:0.137973px;stroke-linecap:butt;stroke-linejoin:miter;stroke-opacity:1"
             d="m 25.583941,72.077949 c 3.72435,7.557424 3.755845,10.247216 11.626798,11.825789 -0.742428,-7.655451 -6.592895,-6.2986 -11.626798,-11.825789 z"
             id="path8516"
             sodipodi:nodetypes="ccc"
             inkscape:transform-center-x="5.3330484"
             inkscape:transform-center-y="-5.3683949" />
          <path
             style="fill:#008000;stroke:none;stroke-width:0.137973px;stroke-linecap:butt;stroke-linejoin:miter;stroke-opacity:1"
             d="m 27.434529,61.510122 c 1.978006,8.189807 1.419396,10.821142 8.75323,14.085904 0.952939,-7.632106 -5.052662,-7.590075 -8.75323,-14.085904 z"
             id="path8518"
             sodipodi:nodetypes="ccc"
             inkscape:transform-center-x="3.9767007"
             inkscape:transform-center-y="-6.4064364" />
        </g>
        <path
           style="fill:#008000;stroke:none;stroke-width:0.137973px;stroke-linecap:butt;stroke-linejoin:miter;stroke-opacity:1"
           d="M 64.801142,93.699622 C 58.4795,97.002701 57.11381,98.824989 50.946461,95.970336 55.27944,91.110118 58.599206,94.96095 64.801142,93.699622 Z"
           id="path8522"
           sodipodi:nodetypes="ccc"
           inkscape:transform-center-x="7.2989834"
           inkscape:transform-center-y="-1.469167" />
        <path
           style="fill:#008000;stroke:none;stroke-width:0.137973px;stroke-linecap:butt;stroke-linejoin:miter;stroke-opacity:1"
           d="m 69.544732,87.160818 c -5.225784,4.854345 -6.062126,6.972451 -12.764203,5.84666 2.896676,-5.83144 7.115033,-2.99327 12.764203,-5.84666 z"
           id="path8524"
           sodipodi:nodetypes="ccc"
           inkscape:transform-center-x="6.5133069"
           inkscape:transform-center-y="-3.8267085" />
        <path
           style="fill:#008000;stroke:none;stroke-width:0.137973px;stroke-linecap:butt;stroke-linejoin:miter;stroke-opacity:1"
           d="m 73.435746,76.992759 c -3.834564,6.014117 -4.110426,8.27459 -10.87998,8.873238 1.334438,-6.373044 6.131673,-4.688917 10.87998,-8.873238 z"
           id="path8526"
           sodipodi:nodetypes="ccc"
           inkscape:transform-center-x="5.3330484"
           inkscape:transform-center-y="-5.3683949" />
        <path
           style="fill:#008000;stroke:none;stroke-width:0.137973px;stroke-linecap:butt;stroke-linejoin:miter;stroke-opacity:1"
           d="M 72.858219,67.928635 C 70.434535,74.636782 70.660651,76.902772 64.18675,78.9701 64.09241,72.459529 69.142083,73.05165 72.858219,67.928635 Z"
           id="path8528"
           sodipodi:nodetypes="ccc"
           inkscape:transform-center-x="3.9767007"
           inkscape:transform-center-y="-6.4064364" />
        <path
           style="fill:#008000;stroke:none;stroke-width:0.137973px;stroke-linecap:butt;stroke-linejoin:miter;stroke-opacity:1"
           d="m 37.084882,93.672202 c 6.321642,3.303079 7.687332,5.125367 13.854681,2.270714 -4.332979,-4.860218 -7.652745,-1.009386 -13.854681,-2.270714 z"
           id="path8530"
           sodipodi:nodetypes="ccc"
           inkscape:transform-center-x="7.2989834"
           inkscape:transform-center-y="-1.469167" />
        <path
           style="fill:#008000;stroke:none;stroke-width:0.137973px;stroke-linecap:butt;stroke-linejoin:miter;stroke-opacity:1"
           d="m 32.341291,87.133398 c 5.225785,4.854345 6.062127,6.972451 12.764204,5.84666 -2.896676,-5.83144 -7.115033,-2.99327 -12.764204,-5.84666 z"
           id="path8532"
           sodipodi:nodetypes="ccc"
           inkscape:transform-center-x="6.5133069"
           inkscape:transform-center-y="-3.8267085" />
        <path
           style="fill:#008000;stroke:none;stroke-width:0.137973px;stroke-linecap:butt;stroke-linejoin:miter;stroke-opacity:1"
           d="m 28.450278,76.965339 c 3.834564,6.014117 4.110425,8.27459 10.87998,8.873238 -1.334439,-6.373044 -6.131674,-4.688917 -10.87998,-8.873238 z"
           id="path8534"
           sodipodi:nodetypes="ccc"
           inkscape:transform-center-x="5.3330484"
           inkscape:transform-center-y="-5.3683949" />
        <path
           style="fill:#008000;stroke:none;stroke-width:0.137973px;stroke-linecap:butt;stroke-linejoin:miter;stroke-opacity:1"
           d="m 29.027805,67.901215 c 2.423684,6.708147 2.197567,8.974137 8.671469,11.041465 0.09433,-6.510571 -4.955333,-5.91845 -8.671469,-11.041465 z"
           id="path8536"
           sodipodi:nodetypes="ccc"
           inkscape:transform-center-x="3.9767007"
           inkscape:transform-center-y="-6.4064364" />
      </g>
      <g
         id="path8540"
         style="stroke:none">
        <path
           style="color:#000000;fill:#ffd700;stroke:none;-inkscape-stroke:none"
           d="m -51.641244,105.80744 c -6.59699,3.54005 -9.952377,4.43497 -17.830148,3.28403 -2.819361,17.89689 7.455992,31.6297 17.830148,36.29081 10.37416,-4.66111 20.64994,-18.39392 17.83057,-36.29081 -7.87777,1.15094 -11.23357,0.25602 -17.83057,-3.28403 z"
           id="path10896" />
        <path
           style="color:#000000;fill:#000000;stroke:none;-inkscape-stroke:none"
           d="m -51.640625,105.24023 -0.236328,0.12696 c -6.565677,3.52324 -9.700503,4.37311 -17.521484,3.23047 l -0.490235,-0.0723 -0.07617,0.48828 c -2.854537,18.12018 7.522691,32.06323 18.119141,36.82422 l 0.205078,0.0918 0.205078,-0.0918 c 10.596449,-4.76098 20.973688,-18.70403 18.119141,-36.82422 l -0.07813,-0.48828 -0.488281,0.0723 c -7.820978,1.14264 -10.955805,0.29277 -17.521485,-3.23047 z m 0,1.12305 c 6.297455,3.35407 9.948206,4.28131 17.369141,3.26953 2.511519,17.32052 -7.377875,30.56912 -17.369141,35.17774 -9.99128,-4.60859 -19.880667,-17.85717 -17.369141,-35.17774 7.420803,1.01174 11.071718,0.0845 17.369141,-3.26953 z"
           id="path10898" />
      </g>
    </g>
  </g>
</svg>
