<?xml version="1.0" encoding="UTF-8" standalone="no"?>
<!-- Created with Inkscape (http://www.inkscape.org/) -->

<svg
   width="49mm"
   height="43mm"
   viewBox="0 0 49 43"
   version="1.1"
   id="svg5"
   sodipodi:docname="platinum.svg"
   inkscape:version="1.1 (c68e22c387, 2021-05-23)"
   xmlns:inkscape="http://www.inkscape.org/namespaces/inkscape"
   xmlns:sodipodi="http://sodipodi.sourceforge.net/DTD/sodipodi-0.dtd"
   xmlns="http://www.w3.org/2000/svg"
   xmlns:svg="http://www.w3.org/2000/svg">
  <sodipodi:namedview
     id="namedview7"
     pagecolor="#ffffff"
     bordercolor="#666666"
     borderopacity="1.0"
     inkscape:pageshadow="2"
     inkscape:pageopacity="0.0"
     inkscape:pagecheckerboard="0"
     inkscape:document-units="mm"
     showgrid="false"
     width="47.894mm"
     inkscape:zoom="1.4233231"
     inkscape:cx="171.07852"
     inkscape:cy="110.65654"
     inkscape:window-width="1366"
     inkscape:window-height="715"
     inkscape:window-x="-8"
     inkscape:window-y="-8"
     inkscape:window-maximized="1"
     inkscape:current-layer="layer1"
     inkscape:lockguides="false" />
  <defs
     id="defs2" />
  <g
     inkscape:label="Layer 1"
     inkscape:groupmode="layer"
     id="layer1">
    <g
       id="g11374"
       transform="translate(75.869758,-54.655231)">
      <g
         id="g8206"
         transform="translate(-102.31277,-0.72997653)">
        <g
           id="g8178"
           transform="translate(1.4118438,-1.2990152)">
          <path
             style="color:#000000;fill:#008000;stroke-width:0.137973px;-inkscape-stroke:none"
             d="m 33.561037,92.811044 c 6.99521,4.696008 8.362996,7.012285 15.97358,4.458307 -4.458821,-6.26706 -8.85481,-2.175081 -15.97358,-4.458307 z"
             id="path8170" />
          <path
             style="color:#000000;fill:#008000;stroke-width:0.137973px;-inkscape-stroke:none"
             d="m 28.974137,83.277346 c 5.507857,6.375654 6.21585,8.970788 14.230641,8.515903 -2.64677,-7.221616 -7.966836,-4.434879 -14.230641,-8.515903 z"
             id="path8172" />
          <path
             style="color:#000000;fill:#008000;stroke-width:0.137973px;-inkscape-stroke:none"
             d="m 25.583941,72.077949 c 3.72435,7.557424 3.755845,10.247216 11.626798,11.825789 -0.742428,-7.655451 -6.592895,-6.2986 -11.626798,-11.825789 z"
             id="path8174" />
          <path
             style="color:#000000;fill:#008000;stroke-width:0.137973px;-inkscape-stroke:none"
             d="m 27.434529,61.510122 c 1.978006,8.189807 1.419396,10.821142 8.75323,14.085904 0.952939,-7.632106 -5.052662,-7.590075 -8.75323,-14.085904 z"
             id="path8176" />
        </g>
        <g
           id="g8188"
           transform="matrix(-1,0,0,1,100.47418,-1.271595)">
          <path
             style="color:#000000;fill:#008000;stroke-width:0.137973px;-inkscape-stroke:none"
             d="m 33.561037,92.811044 c 6.99521,4.696008 8.362996,7.012285 15.97358,4.458307 -4.458821,-6.26706 -8.85481,-2.175081 -15.97358,-4.458307 z"
             id="path8180" />
          <path
             style="color:#000000;fill:#008000;stroke-width:0.137973px;-inkscape-stroke:none"
             d="m 28.974137,83.277346 c 5.507857,6.375654 6.21585,8.970788 14.230641,8.515903 -2.64677,-7.221616 -7.966836,-4.434879 -14.230641,-8.515903 z"
             id="path8182" />
          <path
             style="color:#000000;fill:#008000;stroke-width:0.137973px;-inkscape-stroke:none"
             d="m 25.583941,72.077949 c 3.72435,7.557424 3.755845,10.247216 11.626798,11.825789 -0.742428,-7.655451 -6.592895,-6.2986 -11.626798,-11.825789 z"
             id="path8184" />
          <path
             style="color:#000000;fill:#008000;stroke-width:0.137973px;-inkscape-stroke:none"
             d="m 27.434529,61.510122 c 1.978006,8.189807 1.419396,10.821142 8.75323,14.085904 0.952939,-7.632106 -5.052662,-7.590075 -8.75323,-14.085904 z"
             id="path8186" />
        </g>
        <path
           style="color:#000000;fill:#008000;stroke-width:0.137973px;-inkscape-stroke:none"
           d="M 64.801142,93.699622 C 58.4795,97.002701 57.11381,98.824989 50.946461,95.970336 55.27944,91.110118 58.599206,94.96095 64.801142,93.699622 Z"
           id="path8190" />
        <path
           style="color:#000000;fill:#008000;stroke-width:0.137973px;-inkscape-stroke:none"
           d="m 69.544732,87.160818 c -5.225784,4.854345 -6.062126,6.972451 -12.764203,5.84666 2.896676,-5.83144 7.115033,-2.99327 12.764203,-5.84666 z"
           id="path8192" />
        <path
           style="color:#000000;fill:#008000;stroke-width:0.137973px;-inkscape-stroke:none"
           d="m 73.435746,76.992759 c -3.834564,6.014117 -4.110426,8.27459 -10.87998,8.873238 1.334438,-6.373044 6.131673,-4.688917 10.87998,-8.873238 z"
           id="path8194" />
        <path
           style="color:#000000;fill:#008000;stroke-width:0.137973px;-inkscape-stroke:none"
           d="M 72.858219,67.928635 C 70.434535,74.636782 70.660651,76.902772 64.18675,78.9701 64.09241,72.459529 69.142083,73.05165 72.858219,67.928635 Z"
           id="path8196" />
        <path
           style="color:#000000;fill:#008000;stroke-width:0.137973px;-inkscape-stroke:none"
           d="m 37.084882,93.672202 c 6.321642,3.303079 7.687332,5.125367 13.854681,2.270714 -4.332979,-4.860218 -7.652745,-1.009386 -13.854681,-2.270714 z"
           id="path8198" />
        <path
           style="color:#000000;fill:#008000;stroke-width:0.137973px;-inkscape-stroke:none"
           d="m 32.341291,87.133398 c 5.225785,4.854345 6.062127,6.972451 12.764204,5.84666 -2.896676,-5.83144 -7.115033,-2.99327 -12.764204,-5.84666 z"
           id="path8200" />
        <path
           style="color:#000000;fill:#008000;stroke-width:0.137973px;-inkscape-stroke:none"
           d="m 28.450278,76.965339 c 3.834564,6.014117 4.110425,8.27459 10.87998,8.873238 -1.334439,-6.373044 -6.131674,-4.688917 -10.87998,-8.873238 z"
           id="path8202" />
        <path
           style="color:#000000;fill:#008000;stroke-width:0.137973px;-inkscape-stroke:none"
           d="m 29.027805,67.901215 c 2.423684,6.708147 2.197567,8.974137 8.671469,11.041465 0.09433,-6.510571 -4.955333,-5.91845 -8.671469,-11.041465 z"
           id="path8204" />
      </g>
      <g
         id="path8208">
        <path
           style="color:#000000;fill:#a0b2c6;-inkscape-stroke:none"
           d="m -51.373214,56.222101 c -6.59699,3.540051 -9.952378,4.434978 -17.830149,3.284037 -2.819361,17.896891 7.455992,31.629699 17.830149,36.290808 10.37416,-4.661109 20.64994,-18.393917 17.83057,-36.290808 -7.87777,1.150941 -11.23357,0.256014 -17.83057,-3.284037 z"
           id="path11322" />
        <path
           style="color:#000000;fill:#000000;-inkscape-stroke:none"
           d="m -51.373047,55.654297 -0.236328,0.126953 c -6.565677,3.523248 -9.700503,4.373113 -17.521484,3.230469 l -0.490235,-0.07227 -0.07617,0.488281 c -2.854537,18.120183 7.52269,32.065187 18.119141,36.826172 l 0.205078,0.0918 0.205078,-0.0918 c 10.596449,-4.760983 20.973688,-18.705981 18.119141,-36.826172 l -0.07617,-0.488281 -0.490234,0.07227 c -7.820978,1.142643 -10.955805,0.292775 -17.521485,-3.230469 z m 0,1.123047 c 6.297454,3.354074 9.948206,4.281308 17.369141,3.269531 2.511526,17.320562 -7.377847,30.571103 -17.369141,35.179687 -9.991281,-4.608582 -19.880667,-17.859118 -17.36914,-35.179687 7.42095,1.011781 11.071656,0.08458 17.36914,-3.269531 z"
           id="path11324" />
      </g>
    </g>
  </g>
</svg>
